<!-- GENERATED by npm run mark — edit src/utils/aperture.ts, not this file. -->
<svg xmlns="http://www.w3.org/2000/svg" viewBox="0 0 100 100" fill="#eeeeee">
  <path d="M61.743 19.66L12.805 19.66A48 48 0 0 1 51.562 2.025Z" />
  <path d="M82.147 45L57.678 2.618A48 48 0 0 1 92.328 27.365Z" />
  <path d="M70.404 75.34L94.873 32.958A48 48 0 0 1 90.766 75.34Z" />
  <path d="M38.257 80.34L87.195 80.34A48 48 0 0 1 48.438 97.975Z" />
  <path d="M17.853 55L42.322 97.382A48 48 0 0 1 7.672 72.635Z" />
  <path d="M29.596 24.66L5.127 67.042A48 48 0 0 1 9.234 24.66Z" />
</svg>
